<svg xmlns="http://www.w3.org/2000/svg" viewBox="0 0 512 768">
  <defs>
    <linearGradient id="capeGlow" x1="0" x2="0" y1="0" y2="1">
      <stop offset="0%" stop-color="#3a5bff" stop-opacity="0.85" />
      <stop offset="60%" stop-color="#192083" stop-opacity="0.9" />
      <stop offset="100%" stop-color="#05051c" stop-opacity="0.95" />
    </linearGradient>
    <linearGradient id="armorSheen" x1="0" x2="0" y1="0" y2="1">
      <stop offset="0%" stop-color="#d9e2ff" />
      <stop offset="45%" stop-color="#6d7cf6" />
      <stop offset="100%" stop-color="#1c1f5a" />
    </linearGradient>
    <radialGradient id="cosmicCore" cx="0.5" cy="0.4" r="0.6">
      <stop offset="0%" stop-color="#fff8c8" />
      <stop offset="40%" stop-color="#ffe06a" />
      <stop offset="100%" stop-color="#d24fdb" />
    </radialGradient>
    <filter id="inkBlur" x="-5%" y="-5%" width="110%" height="110%">
      <feGaussianBlur in="SourceGraphic" stdDeviation="0.9" />
    </filter>
  </defs>
  <rect width="512" height="768" fill="none" />
  <g stroke="#060611" stroke-linecap="round" stroke-linejoin="round" stroke-width="3">
    <path d="M256 130c-46 0-82 30-94 86l-42 214c28 68 87 104 136 104s108-36 136-104l-42-214c-12-56-48-86-94-86z" fill="url(#armorSheen)" />
    <path d="M162 216c24-44 58-66 94-66s70 22 94 66l36 188c-18 54-72 88-130 88s-112-34-130-88l36-188z" fill="none" />
    <path d="M256 116c-12 0-24 10-24 34 0 28 12 54 24 54s24-26 24-54c0-24-12-34-24-34z" fill="#060611" />
    <path d="M208 180c18-10 32-14 48-14s30 4 48 14" fill="none" />
    <path d="M214 210c12-6 24-10 42-10s30 4 42 10" fill="none" />
    <path d="M240 254c6-6 10-8 16-8s10 2 16 8" fill="none" />
    <path d="M178 424c24 20 48 30 78 30s54-10 78-30" fill="none" />
    <path d="M154 344l-20 76c18 46 60 72 122 72s104-26 122-72l-20-76c-26 28-60 42-102 42s-76-14-102-42z" fill="none" />
    <path d="M188 502c-18 28-32 74-26 110l10 68c34 14 64 22 84 22s50-8 84-22l10-68c6-36-8-82-26-110" fill="#111226" />
    <path d="M160 624c40 24 64 34 96 34s56-10 96-34" fill="none" />
    <path d="M156 286l-64 74c-12 24-12 46 16 66 32 24 60 32 86 30" fill="none" />
    <path d="M356 286l64 74c12 24 12 46-16 66-32 24-60 32-86 30" fill="none" />
    <path d="M198 188c-22-26-38-56-44-94l-58 38c-18 66 0 120 68 164" fill="url(#capeGlow)" />
    <path d="M314 188c22-26 38-56 44-94l58 38c18 66 0 120-68 164" fill="url(#capeGlow)" />
    <path d="M256 192c-22 0-44 20-48 52-4 34 14 82 48 82s52-48 48-82c-4-32-26-52-48-52z" fill="#232559" />
    <path d="M230 210c10 12 16 18 26 18s16-6 26-18" fill="none" />
    <path d="M240 246h32" fill="none" />
    <path d="M256 302c-16 0-28 14-28 34 0 22 12 36 28 36s28-14 28-36c0-20-12-34-28-34z" fill="#0c0f2f" />
  </g>
  <g stroke="#060611" stroke-linecap="round" stroke-linejoin="round" stroke-width="2">
    <path d="M164 468c-8 28-14 76-6 114" fill="none" />
    <path d="M348 468c8 28 14 76 6 114" fill="none" />
    <path d="M208 548c12 26 30 40 48 40s36-14 48-40" fill="none" />
    <path d="M184 356c-26 0-62-12-90-42" fill="none" />
    <path d="M328 356c26 0 62-12 90-42" fill="none" />
    <path d="M210 150c10 10 26 16 46 16s36-6 46-16" fill="none" />
  </g>
  <circle cx="256" cy="284" r="54" fill="url(#cosmicCore)" opacity="0.72" />
  <g stroke="#f8f2ff" stroke-linecap="round" stroke-width="2" opacity="0.7" filter="url(#inkBlur)">
    <path d="M118 212c28 12 50 14 74 6" />
    <path d="M394 212c-28 12-50 14-74 6" />
    <path d="M176 320c18 16 44 24 80 24s62-8 80-24" />
    <path d="M188 404c14 18 34 26 68 26s54-8 68-26" />
  </g>
</svg>
