<svg xmlns="http://www.w3.org/2000/svg" viewBox="0 0 512 768">
  <defs>
    <linearGradient id="shadowSuit" x1="0" x2="0" y1="0" y2="1">
      <stop offset="0%" stop-color="#1c2438" />
      <stop offset="50%" stop-color="#101623" />
      <stop offset="100%" stop-color="#06080f" />
    </linearGradient>
    <linearGradient id="cloakEdge" x1="0" x2="1" y1="0" y2="0">
      <stop offset="0%" stop-color="#27334a" />
      <stop offset="50%" stop-color="#121926" />
      <stop offset="100%" stop-color="#1c1f2e" />
    </linearGradient>
    <radialGradient id="gogglesGlow" cx="0.5" cy="0.5" r="0.6">
      <stop offset="0%" stop-color="#ffe880" />
      <stop offset="50%" stop-color="#ffd148" />
      <stop offset="100%" stop-color="#ff8c1c" />
    </radialGradient>
  </defs>
  <rect width="512" height="768" fill="none" />
  <g stroke="#04060b" stroke-width="3" stroke-linecap="round" stroke-linejoin="round">
    <path d="M178 134l-96 174c-18 44-12 82 32 116s90 50 142 50 98-16 142-50 50-72 32-116l-96-174" fill="url(#cloakEdge)" />
    <path d="M256 128c-50 0-82 30-82 94 0 48 18 98 82 98s82-50 82-98c0-64-32-94-82-94z" fill="url(#shadowSuit)" />
    <path d="M192 220c22-28 38-40 64-40s42 12 64 40" fill="none" />
    <path d="M182 310c28 24 50 36 74 36s46-12 74-36" fill="none" />
    <path d="M204 360c-32 42-52 100-52 172 0 56 20 102 48 130 14 14 30 14 44 0 28-28 48-74 48-130 0-72-20-130-52-172" fill="#0a0f1c" />
    <path d="M190 354c-24-6-60-32-100-80" fill="none" />
    <path d="M322 354c24-6 60-32 100-80" fill="none" />
    <path d="M198 232c-26-26-60-82-84-162l-66 50c-18 108 22 180 118 220" fill="#070b14" />
    <path d="M314 232c26-26 60-82 84-162l66 50c18 108-22 180-118 220" fill="#070b14" />
    <path d="M198 488c-18 50-18 86-8 128" fill="none" />
    <path d="M314 488c18 50 18 86 8 128" fill="none" />
    <path d="M214 524c18 38 30 56 42 56s24-18 42-56" fill="none" />
  </g>
  <g stroke="#1b2435" stroke-width="2" stroke-linecap="round" stroke-linejoin="round">
    <path d="M142 278c32 8 60 8 84 0" />
    <path d="M286 278c24 8 52 8 84 0" />
    <path d="M154 338c28 14 52 18 78 18" />
    <path d="M358 338c-26 14-50 18-78 18" />
    <path d="M170 400c24 18 44 24 70 24" />
    <path d="M342 400c-24 18-44 24-70 24" />
    <path d="M188 460c16 20 32 30 56 30" />
    <path d="M324 460c-16 20-32 30-56 30" />
  </g>
  <path d="M208 196c18-16 36-22 48-22s30 6 48 22c18 18 28 36 28 52s-10 30-28 30-38-10-48-10-30 10-48 10-28-14-28-30 10-34 28-52z" fill="#101c2a" stroke="#04060b" stroke-width="4" stroke-linecap="round" stroke-linejoin="round" />
  <g stroke="#ffe066" stroke-width="4" stroke-linecap="round" stroke-linejoin="round">
    <path d="M224 204c12-10 20-14 32-14s20 4 32 14" />
    <path d="M220 238c16-8 24-10 36-10s20 2 36 10" />
  </g>
  <g fill="url(#gogglesGlow)" stroke="#04060b" stroke-width="3" stroke-linecap="round" stroke-linejoin="round">
    <path d="M208 226c0 16 14 26 48 26s48-10 48-26-14-26-48-26-48 10-48 26z" />
    <path d="M212 226c0 8 6 12 20 12s20-4 20-12-6-12-20-12-20 4-20 12z" fill="#ffe066" />
    <path d="M280 226c0 8 6 12 20 12s20-4 20-12-6-12-20-12-20 4-20 12z" fill="#ffe066" />
  </g>
  <g stroke="#2c3650" stroke-width="3" stroke-linecap="round" stroke-linejoin="round" opacity="0.6">
    <path d="M104 340l-56-16" />
    <path d="M100 380l-56 4" />
    <path d="M408 340l56-16" />
    <path d="M412 380l56 4" />
    <path d="M128 420l-44 20" />
    <path d="M384 420l44 20" />
  </g>
  <g stroke="#0d1422" stroke-width="2" stroke-linecap="round" stroke-dasharray="10 12" opacity="0.8">
    <path d="M170 126c12 36 24 58 34 70" />
    <path d="M342 126c-12 36-24 58-34 70" />
    <path d="M128 502c24 26 46 40 64 46" />
    <path d="M384 502c-24 26-46 40-64 46" />
  </g>
</svg>
